<svg width="18" height="18" viewBox="0 0 18 18" fill="none" xmlns="http://www.w3.org/2000/svg">
<path d="M16.418 11.6367H15.8906V11.1094C15.8906 10.237 15.1809 9.52734 14.3086 9.52734H9.52734V8.47266C10.0229 8.47266 10.6154 8.47266 11.1094 8.47266C11.4006 8.47266 11.6367 8.23655 11.6367 7.94531C11.6367 7.65408 11.4006 7.41797 11.1094 7.41797H10.582V6.36328H12.1641C13.0364 6.36328 13.7461 5.65358 13.7461 4.78125V1.58203C13.7461 0.709699 13.0364 0 12.1641 0H5.83594C4.96361 0 4.25391 0.709699 4.25391 1.58203V4.78125C4.25391 5.65358 4.96361 6.36328 5.83594 6.36328H7.41797V7.41797H6.89062C6.59939 7.41797 6.36328 7.65408 6.36328 7.94531C6.36328 8.23655 6.59939 8.47266 6.89062 8.47266C7.38457 8.47266 7.97713 8.47266 8.47266 8.47266V9.52734H3.69141C2.81907 9.52734 2.10938 10.237 2.10938 11.1094V11.6367H1.58203C0.709699 11.6367 0 12.3464 0 13.2188V14.2734C0 15.1458 0.709699 15.8555 1.58203 15.8555H2.10938V16.9453H1.58203C1.2908 16.9453 1.05469 17.1814 1.05469 17.4727C1.05469 17.7639 1.2908 18 1.58203 18H3.69141C3.98264 18 4.21875 17.7639 4.21875 17.4727C4.21875 17.1814 3.98264 16.9453 3.69141 16.9453H3.16406V15.8555H3.69141C4.56374 15.8555 5.27344 15.1458 5.27344 14.2734V13.2188C5.27344 12.3464 4.56374 11.6367 3.69141 11.6367H3.16406V11.1094C3.16406 10.8186 3.40063 10.582 3.69141 10.582H8.47266V11.6367H7.94531C7.07298 11.6367 6.36328 12.3464 6.36328 13.2188V14.2734C6.36328 15.1458 7.07298 15.8555 7.94531 15.8555H8.47266V16.9453H7.94531C7.65408 16.9453 7.41797 17.1814 7.41797 17.4727C7.41797 17.7639 7.65408 18 7.94531 18H10.0547C10.3459 18 10.582 17.7639 10.582 17.4727C10.582 17.1814 10.3459 16.9453 10.0547 16.9453H9.52734V15.8555H10.0547C10.927 15.8555 11.6367 15.1458 11.6367 14.2734V13.2188C11.6367 12.3464 10.927 11.6367 10.0547 11.6367H9.52734V10.582H14.3086C14.5994 10.582 14.8359 10.8186 14.8359 11.1094V11.6367H14.3086C13.4363 11.6367 12.7266 12.3464 12.7266 13.2188V14.2734C12.7266 15.1458 13.4363 15.8555 14.3086 15.8555H14.8359V16.9453H14.3086C14.0174 16.9453 13.7812 17.1814 13.7812 17.4727C13.7812 17.7639 14.0174 18 14.3086 18H16.418C16.7092 18 16.9453 17.7639 16.9453 17.4727C16.9453 17.1814 16.7092 16.9453 16.418 16.9453H15.8906V15.8555H16.418C17.2903 15.8555 18 15.1458 18 14.2734V13.2188C18 12.3464 17.2903 11.6367 16.418 11.6367ZM3.69141 12.6914C3.98218 12.6914 4.21875 12.928 4.21875 13.2188V14.2734C4.21875 14.5642 3.98218 14.8008 3.69141 14.8008H1.58203C1.29125 14.8008 1.05469 14.5642 1.05469 14.2734V13.2188C1.05469 12.928 1.29125 12.6914 1.58203 12.6914H3.69141ZM5.83594 5.30859C5.54516 5.30859 5.30859 5.07203 5.30859 4.78125V1.58203C5.30859 1.29125 5.54516 1.05469 5.83594 1.05469H12.1641C12.4548 1.05469 12.6914 1.29125 12.6914 1.58203V4.78125C12.6914 5.07203 12.4548 5.30859 12.1641 5.30859C10.897 5.30859 7.09843 5.30859 5.83594 5.30859ZM10.0547 12.6914C10.3455 12.6914 10.582 12.928 10.582 13.2188V14.2734C10.582 14.5642 10.3455 14.8008 10.0547 14.8008H7.94531C7.65454 14.8008 7.41797 14.5642 7.41797 14.2734V13.2188C7.41797 12.928 7.65454 12.6914 7.94531 12.6914H10.0547ZM8.47266 7.41797V6.36328H9.52734V7.41797H8.47266ZM16.9453 14.2734C16.9453 14.5642 16.7087 14.8008 16.418 14.8008H14.3086C14.0178 14.8008 13.7812 14.5642 13.7812 14.2734V13.2188C13.7812 12.928 14.0178 12.6914 14.3086 12.6914H16.418C16.7087 12.6914 16.9453 12.928 16.9453 13.2188V14.2734Z" fill="#C4C4C4"/>
</svg>
