<svg width="19" height="19" viewBox="0 0 19 19" fill="none" xmlns="http://www.w3.org/2000/svg">
<path d="M17.55 8.79399C17.5494 8.79358 17.549 8.79303 17.5486 8.79262L10.206 1.4503C9.89303 1.13719 9.47692 0.964844 9.03431 0.964844C8.59169 0.964844 8.17559 1.13719 7.86248 1.4503L0.523732 8.78891C0.52126 8.79138 0.51865 8.79399 0.516316 8.79646C-0.126386 9.44287 -0.125287 10.4917 0.519474 11.1364C0.814046 11.4311 1.20296 11.6017 1.61893 11.6197C1.63596 11.6213 1.65299 11.6222 1.67016 11.6222H1.96267V17.0255C1.96267 18.0949 2.83279 18.9649 3.90217 18.9649H6.77483C7.0661 18.9649 7.30217 18.7287 7.30217 18.4375V14.2012C7.30217 13.7133 7.69919 13.3164 8.18712 13.3164H9.88149C10.3694 13.3164 10.7663 13.7133 10.7663 14.2012V18.4375C10.7663 18.7287 11.0024 18.9649 11.2936 18.9649H14.1663C15.2358 18.9649 16.1058 18.0949 16.1058 17.0255V11.6222H16.3772C16.8196 11.6222 17.2358 11.4498 17.549 11.1366C18.1945 10.4908 18.1947 9.44013 17.55 8.79399ZM16.8032 10.3909C16.6893 10.5047 16.538 10.5675 16.3772 10.5675H15.5785C15.2872 10.5675 15.0511 10.8035 15.0511 11.0948V17.0255C15.0511 17.5133 14.6542 17.9102 14.1663 17.9102H11.821V14.2012C11.821 13.1318 10.951 12.2617 9.88149 12.2617H8.18712C7.1176 12.2617 6.24748 13.1318 6.24748 14.2012V17.9102H3.90217C3.41438 17.9102 3.01736 17.5133 3.01736 17.0255V11.0948C3.01736 10.8035 2.78129 10.5675 2.49001 10.5675H1.70504C1.6968 10.5669 1.6887 10.5665 1.68032 10.5664C1.52321 10.5636 1.37586 10.5013 1.26545 10.3907C1.03061 10.1559 1.03061 9.7737 1.26545 9.53873C1.26558 9.53873 1.26558 9.53859 1.26572 9.53845L1.26613 9.53804L8.60845 2.196C8.72216 2.08216 8.87336 2.01953 9.03431 2.01953C9.19512 2.01953 9.34632 2.08216 9.46017 2.196L16.8008 9.53653C16.8019 9.53763 16.8032 9.53873 16.8043 9.53983C17.0379 9.77507 17.0375 10.1564 16.8032 10.3909Z" fill="#9EA7AC"/>
</svg>
