<svg width="20" height="19" viewBox="0 0 20 19" fill="none" xmlns="http://www.w3.org/2000/svg">
<path d="M1.40219 0.916443V0.416443H0.29324L1.02749 1.2475L1.40219 0.916443ZM8.74773 9.23046L8.37303 9.56151L8.74773 9.23046ZM9.11135 16.6924H8.61135V17.0074L8.8955 17.1434L9.11135 16.6924ZM10.8887 17.5431L10.6729 17.9941L11.3887 18.3367V17.5431H10.8887ZM11.2524 9.23046L10.8777 8.8994L11.2524 9.23046ZM18.5979 0.916443L18.9726 1.2475L19.7069 0.416443H18.5979V0.916443ZM1.02749 1.2475L8.37303 9.56151L9.12244 8.8994L1.77689 0.585388L1.02749 1.2475ZM8.37303 9.56151C8.52738 9.73621 8.61135 9.95859 8.61135 10.1875H9.61135C9.61135 9.71288 9.43704 9.25549 9.12244 8.8994L8.37303 9.56151ZM8.61135 10.1875V16.6924H9.61135V10.1875H8.61135ZM8.8955 17.1434L10.6729 17.9941L11.1046 17.092L9.32719 16.2414L8.8955 17.1434ZM11.3887 17.5431V10.1875H10.3887V17.5431H11.3887ZM11.3887 10.1875C11.3887 9.95859 11.4727 9.73621 11.6271 9.56151L10.8777 8.8994C10.563 9.25549 10.3887 9.71288 10.3887 10.1875H11.3887ZM11.6271 9.56151L18.9726 1.2475L18.2232 0.585388L10.8777 8.8994L11.6271 9.56151ZM18.5979 0.416443H1.40219V1.41644H18.5979V0.416443Z" fill="#9EA7AC"/>
</svg>
