<svg width="29" height="18" viewBox="0 0 29 18" fill="none" xmlns="http://www.w3.org/2000/svg">
<path d="M24.5179 7.92022C25.3481 7.33686 25.8978 6.36647 25.8978 5.27267C25.8978 3.48333 24.4506 2.03615 22.6613 2.03615C20.8719 2.03615 19.4247 3.48333 19.4247 5.27267C19.4247 6.36647 19.9688 7.33686 20.8046 7.92022C20.0922 8.16703 19.4416 8.54846 18.8919 9.04207C18.1346 8.39701 17.2428 7.9034 16.2668 7.61172C17.4503 6.89374 18.2468 5.58679 18.2468 4.10034C18.2468 1.83422 16.4126 0 14.1465 0C11.8803 0 10.0461 1.83983 10.0461 4.10034C10.0461 5.58679 10.837 6.89374 12.0262 7.61172C11.0614 7.9034 10.1807 8.3914 9.42911 9.02524C8.8794 8.54285 8.23995 8.16703 7.5388 7.92583C8.36896 7.34247 8.91867 6.37208 8.91867 5.27828C8.91867 3.48894 7.47149 2.04176 5.68214 2.04176C3.8928 2.04176 2.44562 3.48894 2.44562 5.27828C2.44562 6.37208 2.98972 7.34247 3.82549 7.92583C1.59863 8.6943 0 10.809 0 13.2939V13.6641C0 13.6753 0.0112184 13.6865 0.0224369 13.6865H6.88252C6.84325 13.995 6.82082 14.3147 6.82082 14.6345V15.0159C6.82082 16.665 8.15581 18 9.80492 18H18.4992C20.1483 18 21.4833 16.665 21.4833 15.0159V14.6345C21.4833 14.3147 21.4609 13.995 21.4216 13.6865H28.3266C28.3378 13.6865 28.349 13.6753 28.349 13.6641V13.2939C28.3378 10.8034 26.7448 8.68869 24.5179 7.92022ZM20.3222 5.26706C20.3222 3.97694 21.3711 2.92801 22.6613 2.92801C23.9514 2.92801 25.0003 3.97694 25.0003 5.26706C25.0003 6.54035 23.9738 7.57806 22.7061 7.60611C22.6893 7.60611 22.6781 7.60611 22.6613 7.60611C22.6444 7.60611 22.6332 7.60611 22.6164 7.60611C21.3431 7.58367 20.3222 6.54596 20.3222 5.26706ZM10.9324 4.10034C10.9324 2.33344 12.3683 0.897476 14.1352 0.897476C15.9022 0.897476 17.3381 2.33344 17.3381 4.10034C17.3381 5.80555 15.9975 7.20224 14.3203 7.2976C14.2586 7.2976 14.1969 7.2976 14.1352 7.2976C14.0735 7.2976 14.0118 7.2976 13.9501 7.2976C12.273 7.20224 10.9324 5.80555 10.9324 4.10034ZM3.32627 5.26706C3.32627 3.97694 4.37519 2.92801 5.66532 2.92801C6.95544 2.92801 8.00436 3.97694 8.00436 5.26706C8.00436 6.54035 6.97787 7.57806 5.71019 7.60611C5.69336 7.60611 5.68214 7.60611 5.66532 7.60611C5.64849 7.60611 5.63727 7.60611 5.62044 7.60611C4.35276 7.58367 3.32627 6.54596 3.32627 5.26706ZM7.03958 12.7834H0.908694C1.16111 10.3939 3.18043 8.52041 5.63166 8.50358C5.64288 8.50358 5.6541 8.50358 5.66532 8.50358C5.67653 8.50358 5.68775 8.50358 5.69897 8.50358C6.86569 8.50919 7.93144 8.9411 8.756 9.64226C7.94827 10.5173 7.34808 11.5943 7.03958 12.7834ZM20.5746 15.0159C20.5746 16.1658 19.6379 17.1025 18.488 17.1025H9.7937C8.64381 17.1025 7.70707 16.1658 7.70707 15.0159V14.6345C7.70707 11.1511 10.4892 8.30165 13.9501 8.20069C14.0118 8.20629 14.0792 8.2063 14.1409 8.2063C14.2026 8.2063 14.2699 8.20629 14.3316 8.20069C17.7925 8.30165 20.5746 11.1511 20.5746 14.6345V15.0159ZM21.2421 12.7834C20.9336 11.5999 20.3447 10.5397 19.5425 9.66469C20.3727 8.94671 21.4497 8.5148 22.6276 8.50358C22.6388 8.50358 22.65 8.50358 22.6613 8.50358C22.6725 8.50358 22.6837 8.50358 22.6949 8.50358C25.1462 8.52041 27.1655 10.3939 27.4179 12.7834H21.2421Z" fill="#9EA7AC"/>
</svg>
