<svg width="18" height="18" viewBox="0 0 18 18" fill="none" xmlns="http://www.w3.org/2000/svg">
<path d="M7.65956 13.7543C7.46762 13.7543 7.27087 13.725 7.07622 13.6444C6.58712 13.4418 6.31707 13.0005 6.10013 12.6459C5.99407 12.4726 5.89395 12.3089 5.79246 12.2074C5.68177 12.0965 5.51176 11.991 5.33174 11.8793C4.96561 11.652 4.55058 11.3945 4.35558 10.9237C4.16062 10.453 4.27195 9.97743 4.37017 9.55787C4.41844 9.35158 4.46407 9.15673 4.464 9.00008C4.46393 8.85658 4.41903 8.67002 4.37144 8.47256C4.27409 8.06839 4.15299 7.56538 4.35558 7.07624C4.55821 6.58715 4.9995 6.31709 5.35409 6.10016C5.5274 5.9941 5.69105 5.89398 5.79261 5.79249C5.90341 5.68179 6.00894 5.51179 6.12066 5.33176C6.34793 4.96563 6.60547 4.55061 7.07622 4.35561C7.54697 4.16061 8.02253 4.27194 8.44209 4.3702C8.64823 4.41843 8.84295 4.46402 8.9996 4.46402H8.99988C9.14338 4.46395 9.32994 4.41906 9.5274 4.37146C9.93153 4.27408 10.4345 4.15301 10.9237 4.35561C11.4128 4.55823 11.6829 4.99952 11.8998 5.35412C12.0059 5.52743 12.106 5.69107 12.2075 5.79263C12.3182 5.90344 12.4882 6.00897 12.6682 6.12069C13.0343 6.34796 13.4494 6.6055 13.6444 7.07624C13.8393 7.54699 13.728 8.02255 13.6298 8.44212C13.5815 8.6484 13.5359 8.84326 13.5359 8.99991C13.536 9.1434 13.5809 9.32997 13.6285 9.52743C13.7258 9.93159 13.8469 10.4346 13.6444 10.9237C13.4417 11.4128 13.0004 11.6829 12.6458 11.8998C12.4725 12.0059 12.3089 12.106 12.2073 12.2075C12.0965 12.3182 11.991 12.4882 11.8793 12.6682C11.652 13.0344 11.3945 13.4494 10.9237 13.6444C10.453 13.8394 9.97741 13.728 9.55784 13.6298C9.3517 13.5816 9.15698 13.536 9.00034 13.536C9.00023 13.536 9.00016 13.536 9.00006 13.536C8.85656 13.536 8.66999 13.5809 8.47253 13.6285C8.2292 13.6871 7.94997 13.7543 7.65956 13.7543ZM7.6448 5.30343C7.5812 5.30343 7.52513 5.3112 7.47979 5.32997C7.32261 5.39507 7.16713 5.64562 7.01674 5.8879C6.8783 6.11095 6.73519 6.34156 6.53808 6.53853C6.34814 6.72832 6.12263 6.8663 5.90457 6.99975C5.64577 7.15808 5.40131 7.30766 5.32998 7.47981C5.25865 7.65196 5.32576 7.93059 5.39677 8.2256C5.45664 8.47411 5.51855 8.73112 5.51865 8.99962C5.51876 9.27833 5.45689 9.54261 5.39705 9.79822C5.33205 10.0759 5.26487 10.363 5.32998 10.5202C5.39508 10.6774 5.64563 10.8329 5.88791 10.9833C6.11096 11.1217 6.34157 11.2648 6.53854 11.4619C6.72833 11.6519 6.86631 11.8774 6.99976 12.0954C7.15809 12.3542 7.30767 12.5987 7.47982 12.67C7.65208 12.7413 7.93067 12.6742 8.22561 12.6032C8.47412 12.5434 8.73113 12.4815 8.99963 12.4813H9.00034C9.27879 12.4813 9.54287 12.5431 9.79823 12.6029C10.0758 12.6679 10.3629 12.7352 10.5202 12.67C10.6774 12.6049 10.8329 12.3544 10.9833 12.1121C11.1217 11.889 11.2648 11.6584 11.4619 11.4615C11.6519 11.2717 11.8774 11.1337 12.0954 11.0002C12.3542 10.8419 12.5987 10.6923 12.67 10.5202C12.7414 10.348 12.6742 10.0694 12.6032 9.77438C12.5434 9.52588 12.4815 9.26887 12.4814 9.00036C12.4812 8.72166 12.5431 8.45737 12.603 8.20177C12.668 7.92412 12.7351 7.63702 12.67 7.47978C12.6049 7.3226 12.3544 7.16712 12.1121 7.01673C11.889 6.87829 11.6584 6.73518 11.4615 6.53807C11.2717 6.34813 11.1337 6.12262 11.0002 5.90456C10.8419 5.64576 10.6923 5.4013 10.5202 5.32997C10.3479 5.25864 10.0693 5.32579 9.77439 5.39676C9.52589 5.45663 9.26888 5.51854 9.00037 5.51864C9.00013 5.51864 8.99988 5.51864 8.99967 5.51864C8.72121 5.51864 8.45714 5.45684 8.20178 5.39704C8.00418 5.35082 7.80176 5.30343 7.6448 5.30343Z" fill="#9EA7AC"/>
<path d="M9.00003 11.4267C7.66196 11.4267 6.5733 10.3381 6.5733 9.00003C6.5733 7.66196 7.66196 6.5733 9.00003 6.5733C10.3381 6.5733 11.4267 7.66196 11.4267 9.00003C11.4267 10.3381 10.3381 11.4267 9.00003 11.4267ZM9.00003 7.62789C8.24347 7.62789 7.62793 8.24344 7.62793 8.99999C7.62793 9.75654 8.24347 10.3721 9.00003 10.3721C9.75658 10.3721 10.3721 9.75654 10.3721 8.99999C10.3721 8.24344 9.75658 7.62789 9.00003 7.62789Z" fill="#9EA7AC"/>
<path d="M5.95891 0C5.04319 0 4.30084 0.742347 4.30084 1.65807C4.30084 2.5738 5.04319 3.31615 5.95891 3.31615C6.87464 3.31615 7.61699 2.5738 7.61699 1.65807C7.61699 0.742347 6.87464 0 5.95891 0ZM5.95891 2.26153C5.62615 2.26153 5.35546 1.99084 5.35546 1.65807C5.35546 1.32531 5.62615 1.05462 5.95891 1.05462C6.29168 1.05462 6.56237 1.32531 6.56237 1.65807C6.56237 1.99084 6.29168 2.26153 5.95891 2.26153Z" fill="#9EA7AC"/>
<path d="M12.0411 0C11.1254 0 10.3831 0.742347 10.3831 1.65807C10.3831 2.5738 11.1254 3.31615 12.0411 3.31615C12.9569 3.31615 13.6992 2.5738 13.6992 1.65807C13.6992 0.742347 12.9569 0 12.0411 0ZM12.0411 2.26153C11.7084 2.26153 11.4377 1.99084 11.4377 1.65807C11.4377 1.32531 11.7084 1.05462 12.0411 1.05462C12.3739 1.05462 12.6446 1.32531 12.6446 1.65807C12.6446 1.99084 12.3739 2.26153 12.0411 2.26153Z" fill="#9EA7AC"/>
<path d="M16.3419 4.30082C15.4262 4.30082 14.6838 5.04317 14.6838 5.95889C14.6838 6.87462 15.4262 7.61696 16.3419 7.61696C17.2577 7.61696 18 6.87462 18 5.95889C18 5.04317 17.2577 4.30082 16.3419 4.30082ZM16.3419 6.56235C16.0092 6.56235 15.7385 6.29166 15.7385 5.95889C15.7385 5.62612 16.0092 5.35544 16.3419 5.35544C16.6747 5.35544 16.9454 5.62612 16.9454 5.95889C16.9454 6.29166 16.6747 6.56235 16.3419 6.56235Z" fill="#9EA7AC"/>
<path d="M16.3419 10.383C15.4262 10.383 14.6838 11.1254 14.6838 12.0411C14.6838 12.9568 15.4262 13.6992 16.3419 13.6992C17.2577 13.6992 18 12.9568 18 12.0411C18 11.1254 17.2577 10.383 16.3419 10.383ZM16.3419 12.6446C16.0092 12.6446 15.7385 12.3739 15.7385 12.0411C15.7385 11.7083 16.0092 11.4377 16.3419 11.4377C16.6747 11.4377 16.9454 11.7083 16.9454 12.0411C16.9454 12.3739 16.6747 12.6446 16.3419 12.6446Z" fill="#9EA7AC"/>
<path d="M12.0411 14.6839C11.1254 14.6839 10.3831 15.4262 10.3831 16.3419C10.3831 17.2577 11.1254 18 12.0411 18C12.9569 18 13.6992 17.2577 13.6992 16.3419C13.6992 15.4262 12.9569 14.6839 12.0411 14.6839ZM12.0411 16.9454C11.7084 16.9454 11.4377 16.6747 11.4377 16.3419C11.4377 16.0092 11.7084 15.7385 12.0411 15.7385C12.3739 15.7385 12.6446 16.0092 12.6446 16.3419C12.6446 16.6747 12.3739 16.9454 12.0411 16.9454Z" fill="#9EA7AC"/>
<path d="M5.95891 14.6839C5.04319 14.6839 4.30084 15.4262 4.30084 16.3419C4.30084 17.2577 5.04319 18 5.95891 18C6.87464 18 7.61699 17.2577 7.61699 16.3419C7.61699 15.4262 6.87464 14.6839 5.95891 14.6839ZM5.95891 16.9454C5.62615 16.9454 5.35546 16.6747 5.35546 16.3419C5.35546 16.0092 5.62615 15.7385 5.95891 15.7385C6.29168 15.7385 6.56237 16.0092 6.56237 16.3419C6.56237 16.6747 6.29168 16.9454 5.95891 16.9454Z" fill="#9EA7AC"/>
<path d="M1.65807 10.383C0.742347 10.383 0 11.1254 0 12.0411C0 12.9568 0.742347 13.6992 1.65807 13.6992C2.5738 13.6992 3.31615 12.9568 3.31615 12.0411C3.31615 11.1254 2.5738 10.383 1.65807 10.383ZM1.65807 12.6446C1.32531 12.6446 1.05462 12.3739 1.05462 12.0411C1.05462 11.7083 1.32531 11.4377 1.65807 11.4377C1.99084 11.4377 2.26153 11.7083 2.26153 12.0411C2.26153 12.3739 1.99084 12.6446 1.65807 12.6446Z" fill="#9EA7AC"/>
<path d="M1.65807 4.30082C0.742347 4.30082 0 5.04317 0 5.95889C0 6.87462 0.742347 7.61696 1.65807 7.61696C2.5738 7.61696 3.31615 6.87462 3.31615 5.95889C3.31615 5.04317 2.5738 4.30082 1.65807 4.30082ZM1.65807 6.56235C1.32531 6.56235 1.05462 6.29166 1.05462 5.95889C1.05462 5.62612 1.32531 5.35544 1.65807 5.35544C1.99084 5.35544 2.26153 5.62612 2.26153 5.95889C2.26153 6.29166 1.99084 6.56235 1.65807 6.56235Z" fill="#9EA7AC"/>
</svg>
