<svg width="15" height="19" viewBox="0 0 15 19" fill="none" xmlns="http://www.w3.org/2000/svg">
<path d="M0.406333 16.7255C0.543805 16.8005 3.81522 18.5621 7.44981 18.5621C11.3875 18.5621 14.3786 16.7946 14.504 16.7194C14.5484 16.6927 14.5852 16.655 14.6107 16.6099C14.6362 16.5649 14.6496 16.5139 14.6496 16.4621C14.6496 14.04 13.9069 11.8235 12.5583 10.2207C11.6149 9.09949 10.4312 8.33526 9.12564 7.98345C9.9248 7.60314 10.5708 6.96231 10.9576 6.16625C11.3444 5.3702 11.4489 4.46626 11.2539 3.60296C11.059 2.73966 10.5762 1.96833 9.88488 1.41572C9.19357 0.863109 8.33485 0.562073 7.44981 0.562073C6.56477 0.562073 5.70605 0.863109 5.01474 1.41572C4.32343 1.96833 3.84064 2.73966 3.6457 3.60296C3.45075 4.46626 3.55525 5.3702 3.94202 6.16625C4.32878 6.96231 4.97482 7.60314 5.77398 7.98345C4.46845 8.33526 3.28476 9.09961 2.34136 10.2207C0.992743 11.8235 0.25 14.04 0.25 16.4621C0.25 16.516 0.264518 16.5689 0.292028 16.6153C0.319537 16.6616 0.359023 16.6997 0.406333 16.7255ZM4.1499 4.46244C4.1499 3.80978 4.34343 3.17177 4.70603 2.62911C5.06863 2.08644 5.58401 1.66348 6.18699 1.41372C6.78997 1.16395 7.45347 1.0986 8.09359 1.22593C8.73371 1.35326 9.3217 1.66755 9.7832 2.12905C10.2447 2.59055 10.559 3.17854 10.6863 3.81866C10.8136 4.45878 10.7483 5.12228 10.4985 5.72526C10.2488 6.32824 9.82581 6.84362 9.28315 7.20622C8.74048 7.56882 8.10247 7.76235 7.44981 7.76235C6.57493 7.76136 5.73616 7.41337 5.11752 6.79473C4.49888 6.1761 4.15089 5.33733 4.1499 4.46244ZM2.80042 10.607C4.01865 9.15949 5.66966 8.36234 7.44981 8.36234C9.22997 8.36234 10.881 9.15949 12.0992 10.607C13.3247 12.0634 14.0138 14.0749 14.0483 16.2871C13.4063 16.6346 10.7388 17.9621 7.44981 17.9621C4.40827 17.9621 1.54372 16.6268 0.851484 16.28C0.887483 14.0706 1.57623 12.0618 2.80042 10.607Z" fill="#9EA7AC"/>
</svg>
